<svg xmlns="http://www.w3.org/2000/svg" viewBox="0 0 180 180">
  <rect width="180" height="180" rx="40" fill="#FFF4E4"/>
  <circle cx="90" cy="92" r="64" fill="#9FD6F4" stroke="#fff" stroke-width="6"/>
  <path d="M52 62c10-8 26-10 34-4s4 16-4 20-6 14 2 20-2 20-12 18-14-14-20-22-8-24 0-32z" fill="#7CC24A"/>
  <path d="M104 50c14 2 28 12 34 26-6 2-12-2-18 4s-2 16-10 18-16-6-14-16 6-12 2-18 0-16 6-14z" fill="#F4A259"/>
  <path d="M110 112c8-4 20-2 22 6s-6 18-16 18-14-6-12-12 0-10 6-12z" fill="#F6C445"/>
  <line x1="26" y1="92" x2="154" y2="92" stroke="#E53935" stroke-width="5"/>
  <g transform="translate(140 40)">
    <circle r="26" fill="#fff"/>
    <polygon points="0,-22 6,0 0,22 -6,0" fill="#3949AB"/>
    <polygon points="0,-22 6,0 -6,0" fill="#E53935"/>
    <circle r="4" fill="#3B2A57"/>
  </g>
</svg>
